<?xml version="1.0" encoding="UTF-8"?>
<svg id="_Слой_1" data-name="Слой 1" xmlns="http://www.w3.org/2000/svg" width="704.8" height="265.97" viewBox="0 0 704.8 265.97">
  <path d="m464.63,94.16c.07,16.26.05,32.52-.04,48.79-.02,3.55.37,6.79,3.18,9.33,1.65,1.5,1.69,3.11-.27,4.4-3.12,2.06-5.81,4.51-7.79,7.72-1.08,1.75-2.35,1.75-3.46,0-2.04-3.19-4.86-5.53-8.02-7.49-2.07-1.28-2.72-2.64-.61-4.43,2.75-2.32,3.45-5.33,3.42-8.81-.11-10.79-.03-21.59-.07-32.39,0-1.45.39-3.36-1.29-4.01-1.7-.65-2.75,1.02-3.61,2.14-5.9,7.68-11.71,15.43-17.54,23.16-2.05,2.73-4.12,5.45-6.11,8.22-3.07,4.28-2.99,7.68.77,11.31,2.23,2.15,2.05,3.35-.38,5-2.62,1.77-4.73,4.11-6.49,6.77-1.26,1.9-2.57,1.89-3.71-.12-1.59-2.8-3.8-5-6.43-6.78-2.01-1.37-2.43-2.78-.5-4.59,2.69-2.53,3.4-5.79,3.35-9.35-.23-17.08-.45-34.15-.63-51.23-.03-2.75-.82-5.18-2.81-7.02-1.89-1.75-1.84-3.01.25-4.53,2.66-1.93,5.04-4.16,6.64-7.14.78-1.46,2.04-2.04,3.14-.3,2.01,3.18,4.88,5.51,7.63,7.95,1.53,1.36,1.44,2.38,0,3.67-2.42,2.18-3.03,5.04-3.02,8.18.04,11.07-.01,22.14.04,33.21,0,1.55-.5,3.65,1.53,4.23,1.76.5,2.49-1.36,3.35-2.52,7.97-10.75,15.9-21.52,23.86-32.28,1.08-1.46,2.01-2.94,1.85-4.74,0-2.3-1.02-4.09-2.35-5.67-1.47-1.76-1.25-3.12.5-4.48,2.6-2.03,4.87-4.39,6.78-7.09,1.23-1.74,2.63-1.98,3.97-.24,2.37,3.06,5.14,5.64,8.43,7.69,1.94,1.21,1.74,2.65.12,3.94-3.11,2.47-3.7,5.77-3.69,9.51Zm-207.95-13.77c-3.02-2.34-6.12-4.6-8.37-7.79-1.16-1.64-2.28-1.7-3.46.09-2.06,3.12-4.64,5.73-7.85,7.68-2.13,1.29-1.95,2.58-.27,4.19,2.03,1.94,3.34,4.27,3.34,7.23-.03,17.9-.02,35.8-.03,53.7,0,2.54-.5,4.92-2.64,6.6-2.31,1.81-1.67,3.36.31,4.93,2.68,2.13,5.16,4.5,7.1,7.34,1.37,2.01,2.66,1.68,3.8-.04,2.1-3.15,5-5.41,8.08-7.45,2.1-1.38,2.42-2.7.52-4.52-2.65-2.53-3.5-5.71-3.35-9.32.15-3.68.03-7.38.03-11.07h-.08c0-4.37-.09-8.75.03-13.12.11-4.24,2.4-5.5,6.23-3.62,3.19,1.56,4.76,4.37,5.87,7.55,3.51,10.04,7.02,20.09,10.56,30.12.64,1.82,1.42,3.53,3.59,4.13,4.39,1.2,8.49,2.97,11.89,6.15,1.41,1.32,2.57,1.2,3.35-.87.81-2.16,1.85-4.25,2.89-6.32,1.15-2.28,4.97-3.39,4.35-5.96-.56-2.32-4.13-2.69-6.24-4.18-11.7-8.28-18.48-20.66-26.75-31.79-1.45-1.96-.65-3.75.97-5.46,3.75-3.99,6.98-8.37,9.73-13.14,1.91-3.32,4.55-6.09,7.21-8.87,2.1-2.19,6.64-2.35,6.73-5.26.07-2.55-3.49-4.63-4.53-7.52-.74-2.05-1.92-2.39-3.74-1.05-1.97,1.45-3.95,3.05-6.37,3.63-2.74.67-4.1,2.44-4.96,4.92-2.83,8.11-5.72,16.2-8.58,24.31-.81,2.31-2.25,4.03-4.47,5.09-4.4,2.09-7.62.21-7.76-4.62-.11-3.69.1-7.38-.04-11.07-.15-3.97.37-7.63,3.37-10.57,1.54-1.51,1.18-2.82-.45-4.08Zm42.54-21.74c3.94,0,7.97-.26,11.54,2.02,5.87,3.75,11.78,7.45,17.62,11.25,4.33,2.82,4.32,4.79.02,7.51-4.09,2.59-8.7,3.93-13.28,5.31-1.41.43-2.66.85-2.17,2.75,2.05,7.95.55,16.05.94,24.07.05,1.06.05,2.46-.56,3.17-3.58,4.17-1.49,7.43,1.34,10.74.97,1.13,1.63,2.53,2.55,3.72.81,1.05,1.43,2.86,2.89,2.58,1.67-.31,1.18-2.27,1.31-3.51,1.34-12.64,3.3-25.21,3.92-37.91.2-4.05,1.21-7.12,5.67-8.32,7.76-2.1,8.72-1.7,11.07,6.08.55,1.83.95,3.71,1.28,5.59,1.51,8.55.73,17.19.77,25.79.1,27.48.05,54.96,0,82.44,0,2.09.83,4.87-1.52,5.97-2.44,1.15-3.93-1.49-5.4-2.86-6.41-5.94-12.66-12.06-18.88-18.21-2.19-2.16-4.36-4.06-7.66-4.24-3.68-.2-7.34-.67-11.02-1.01-21.08-1.96-42.25-2.82-63.29-5.31-1.28-.15-2.7-.58-4.09.63,1.09,2.11,3.07,3.36,4.76,4.85,17.92,15.84,35.85,31.65,53.76,47.5.97.86,2.59,1.83,1.75,3.31-.98,1.74-2.68.71-4.02.17-25.12-10-50.25-20-75.35-30.06-14.58-5.85-29.08-11.92-43.71-17.64-4.11-1.61-8.02-3.97-12.39-4.62-.53.86-.23,1.34.09,1.76,3.7,4.91,7.53,9.72,11.08,14.73,5.74,8.11,12.44,13.98,22.83,16.35,18.75,4.28,37.21,9.88,55.69,15.26,19.4,5.65,39.07,10.34,58.3,16.55,1.14.37,2.57.84,3.45-.3.82-1.07-.24-2.07-.82-2.93-4.07-5.99-8.18-11.95-12.29-17.91-6.43-9.33-12.94-18.61-19.27-28.02-2.77-4.12-1.71-5.98,3.23-6.02,7.38-.07,14.76,0,22.15,0,1.93,0,3.83.19,5.52,1.27,11.05,7.06,22.08,14.15,33.17,21.15,3.09,1.95,3.58,4.48,2.54,7.76-1,3.16-3.32,5.28-5.44,7.59-1.75,1.91-2.72,3.94-.43,6.06,6.03,5.58,10.47,12.22,13.46,19.85.29.74.66,1.63,1.62,1.66.99.04,1.34-.85,1.62-1.6,3.01-7.95,7.64-14.78,14.07-20.37,1.54-1.34,1.58-2.72.17-4.22-1.59-1.69-3.26-3.34-4.65-5.19-3.88-5.12-3.36-8.4,1.93-11.8,10.69-6.87,21.44-13.66,32.18-20.44,1.02-.64,2.22-1.42,3.34-1.43,9.15-.15,18.31-.22,27.46-.12,2.27.03,3.12,1.57,1.96,3.72-.65,1.2-1.4,2.35-2.18,3.47-10.07,14.64-20.15,29.27-30.2,43.91-.74,1.08-2.12,2.25-1.25,3.62.75,1.19,2.3.61,3.43.25,16.01-5.1,32.3-9.14,48.47-13.66,22.36-6.24,44.74-12.38,67.06-18.77,5.25-1.5,10.97-2.05,14.69-7.23,5.17-7.21,10.84-14.07,16.24-21.12.77-1.01,2.68-1.95,1.74-3.31-.92-1.34-2.55-.05-3.72.42-20.92,8.38-41.8,16.83-62.72,25.22-21.54,8.65-43.11,17.25-64.67,25.84-1.45.58-3.33,1.82-4.38-.09-.88-1.6.99-2.63,2.06-3.57,18.03-15.91,36.1-31.77,54.12-47.69,1.41-1.25,3.34-2.24,3.64-4.51-1.9-.72-3.52-.25-5.13-.12-23.95,2.03-47.9,4.11-71.86,6.04-3.08.25-5.41,1.28-7.58,3.41-7.12,6.98-14.35,13.84-21.57,20.73-1.34,1.28-2.61,3.28-4.81,2.28-2.14-.97-1.5-3.27-1.67-5.12-.04-.41,0-.82,0-1.23,0-33.5.03-66.99-.02-100.49,0-5.4.97-10.61,2.47-15.74.79-2.7,1.49-6.14,5.45-5.34,7.51,1.52,9.7,1.64,10.29,6.66.53,4.48,1,8.96,1.47,13.45.97,9.37,1.9,18.75,2.9,28.13.11,1.03,0,2.43,1.32,2.74,1.1.26,1.58-.9,2.11-1.65,2.05-2.9,4.06-5.83,6.09-8.75.83-1.19,1.2-2.35.42-3.8-5.22-9.68-3.2-19.8-1.48-29.79.38-2.19.3-2.72-1.83-3.3-5-1.36-10-2.86-14.34-5.88-3.74-2.61-3.79-4.26-.15-6.74,3.73-2.54,7.63-4.83,11.26-7.49,6.32-4.63,13.17-6.18,21.08-6.09,31.03.37,62.08-.27,93.1.36,12.7.26,23.12-5.23,34.17-9.77-1.78-.34-3.52-.32-5.26-.34-17.63-.27-35.25-.09-52.89-.52-26.37-.64-52.77-.25-79.15-.36-3.06-.01-5.49.83-7.64,3.14-5.96,6.4-12.04,12.68-18.17,18.93-3.17,3.23-4.73,3.16-7.74-.28-3.06-3.49-6.15-6.98-8.87-10.73-1.86-2.57-3.16-2.59-4.9-.11-3.07,4.37-6.41,8.5-10.31,12.19-2.29,2.17-4.11,2.09-6.25-.17-5.74-6.05-11.8-11.8-17.29-18.06-3.19-3.63-6.62-5-11.4-4.95-43.74.43-87.48.66-131.22.97-1.3,0-2.68-.33-4.45.7,11.38,3.93,21.5,9.58,33.92,9.36,32.25-.57,64.53-.21,96.79-.17Zm-135.3,94.7c2.41-2.66,3.11-5.94,3.1-9.49-.05-18.3,0-36.61-.02-54.92,0-1.49.15-3.23-.52-4.43-2.23-3.98-.3-5.93,3-7.7,2.53-1.36,4.62-3.4,6.56-5.52,1.68-1.83,3.01-1.68,4.69.21,6.61,7.43,15.1,9.35,24.52,7.56,2.51-.48,4.23-.22,5.67,1.83.31.44.66.99,1.12,1.18,5.87,2.38,4.41,6.29,3.27,11.13-1.41,6.02-1.73,12.48.74,18.53.98,2.41.51,4.03-1.54,5.66-8.5,6.78-8.45,6.79-18.05,2.02-2.32-1.15-4.7-2.26-7.18-2.97-4.43-1.27-7.42.52-7.9,5.09-.44,4.18-.09,8.45-.09,12.68-.05,0-.1,0-.15,0,0,3.82-.14,7.65.05,11.47.14,2.88.73,5.75,3.15,7.75,2.23,1.84,1.39,3.16-.6,4.4-3.05,1.9-5.71,4.2-7.72,7.22-.91,1.37-2.14,2.57-3.43.49-2.01-3.25-4.93-5.43-7.99-7.52-1.9-1.3-2.49-2.7-.68-4.68Zm17.02-60.36h.04c0,3.68-.03,7.36.01,11.04.03,2.43.7,4.68,2.94,5.95,3.55,2.02,7.09,4.09,10.82,5.75,4.25,1.89,8.01-.28,8.15-4.82.24-7.62.08-15.26.03-22.89-.02-2.34-1.3-3.79-3.59-4.33-4.53-1.06-8.78-2.86-13.01-4.79-3.89-1.78-5.17-.9-5.35,3.46-.14,3.54-.03,7.08-.03,10.63ZM1.26,261.2c5.54-13.09,11.01-26.2,16.51-39.3,7.45-17.75,14.93-35.49,22.36-53.25,1.84-4.39,4.74-8.1,8.12-11.21,5.86-5.4,8.91-12.14,10.04-19.66,2.04-13.5,4.66-26.93,7.57-40.21,4.58-20.95,10.65-41.62,25.24-58.43,8.72-10.05,19.3-17.71,30.93-23.93,11.23-6.01,23.04-10.69,35.18-14.54.95-.3,2.14-1.31,2.92-.02.59.97-.52,1.74-1.06,2.46-5.9,7.9-7.95,16.87-7.88,26.6.14,19.55-.17,39.1.16,58.64.11,6.45-1.28,12.07-4.7,17.4-4.4,6.87-6.12,14.42-6.04,22.61.2,19.54.12,39.09.03,58.64-.02,4.99.97,9.23,5.88,11.63,1.99.97,1.82,2.47.82,4.1-4.13,6.79-7.57,13.92-10.67,21.22-.31.73-.45,1.75-1.5,1.63-1-.11-.97-1.18-1.28-1.9-3.32-7.49-6.56-15.04-11.18-21.85-1.28-1.89-.79-2.95.99-3.91,4.39-2.36,5.63-6.17,5.61-10.96-.11-29.11-.06-58.23-.06-87.34,0-8.86-.3-9.15-11.21-9.03-15.04.48-29.86,5.95-41.64,18.64-2.35,2.53-3.48,5.31-3.89,8.74-1.21,10.28-2.85,20.5-4.12,30.78-.93,7.58-2.02,15.19-2.17,22.8-.22,11.1-2.39,21.93-3.55,32.9-.21,1.94-1.23,3.23-2.8,4.28-21.9,14.56-39.6,33.37-54.97,54.53-.92,1.27-1.8,3.74-4.02,2.26-1.89-1.26-.23-2.84.39-4.31ZM76.87,101.67c1.7.82,2.62-.98,3.65-1.97,12.64-12.23,27.31-20.83,44.55-24.73,3.21-.73,4.16-2.67,4.16-5.59-.02-7.65,0-15.31,0-22.96h.02c0-7.52.05-15.04-.02-22.55-.05-5.52-1.56-6.44-6.44-4.1-9.43,4.53-17.15,11.24-23.48,19.42-13.32,17.21-19.33,37.42-23.29,58.4-.27,1.42-.76,3.3.87,4.09Zm458.09-23.82c1.93,1.32,2.6,2.79.61,4.61-2.96,2.7-3.69,6.13-3.68,10.01.05,14.33.11,28.67-.56,42.99-.38,8.15,1.33,15.29,10.13,18.55,2.4.89,2.19,2.45.52,4.05-2.68,2.57-4.88,5.51-6.74,8.72-1.38,2.38-3.05,2.4-4.96.55-.88-.85-1.93-1.53-2.81-2.39-4.88-4.72-10.55-7.24-17.17-6.31-8.47-.96-14.82,2.6-20.34,8.2-2.89,2.93-3.78,2.73-5.54-.98-.35-.74-.53-1.61-1.03-2.22-3.6-4.42-4.33-8.02,1.34-11.82,3.19-2.14,2.76-6.65,2.64-10.33-.43-13.51-.25-27.03-.09-40.54.06-4.99.48-10.18-2.85-14.57-1.14-1.51-.97-2.66.93-3.53,2.49-1.14,4.76-2.66,6.82-4.49,1.11-.99,2.26-1.19,3.77-.76,10.2,2.94,18.83-.25,26.3-7.2,2.62-2.44,4.41-2.8,6.31.66,1.53,2.77,3.79,5,6.42,6.8Zm-16.79,38.11h.07c0-10.91,0-21.83,0-32.74,0-2.76-.58-4.88-4.14-4.54-8.76.85-15.71,8.19-15.73,16.91-.02,14.6.4,29.2-.05,43.78-.29,9.48,5.37,12.82,13.05,14.21,5.26.95,6.75-.43,6.78-5.71.06-10.64.02-21.28.02-31.92Zm28.16-112.27c-.66-.97-1.9-1.66-1.64-3.48,4.96.42,9.41,2.58,13.91,4.25,14.38,5.34,28.12,11.89,40.56,21.09,18.58,13.74,28.96,32.54,35.26,54.26,5.76,19.86,8.42,40.34,12.89,60.45,1.17,5.25,2.56,10.36,6.78,14.12,8.38,7.46,12.16,17.65,16.32,27.59,10.61,25.32,21.16,50.66,31.77,75.99.58,1.37,1.4,2.65,2.1,3.97.72,1.35.82,2.79-.46,3.69-1.43,1.02-2.2-.39-2.91-1.35-8.41-11.31-17.38-22.11-27.42-32.04-8.18-8.09-16.68-15.77-26.34-22.05-3.39-2.2-4.77-5-5.35-9.02-2.43-16.9-3.45-33.91-5.03-50.88-1.1-11.8-3.14-23.52-4.78-35.27-.36-2.57-1.82-4.52-3.61-6.28-12.99-12.75-28.6-18.75-46.76-18.18-5,.16-6.07,1.09-6.07,6.08-.04,30.49,0,60.97-.04,91.46,0,3.9,1.5,7.05,4.75,8.99,3.08,1.84,2.74,3.47,1.1,6.24-4.32,7.26-8.29,14.73-11.52,23.26-1.92-2.12-2.34-4.47-3.31-6.52-2.76-5.8-5.11-11.81-8.81-17.11-1.41-2.02-1.23-3.39,1.06-4.57,3.77-1.94,5.61-5.4,5.67-9.39.33-22.13.99-44.27-.35-66.39-.38-6.23-2.6-11.99-6.04-17.25-3.22-4.93-4.64-10.24-4.56-16.26.27-21.19.23-42.38.17-63.57-.02-8.03-2.83-15.24-7.32-21.84Zm29.21,41.83c-.01,7.65.04,15.29-.03,22.94-.04,3.66,1.36,5.75,5.13,6.67,16.26,3.95,30.36,11.91,42.54,23.36,1.36,1.28,2.57,4.2,4.76,2.9,2.06-1.22.8-4,.65-6.12-.03-.4-.16-.8-.26-1.2-2.88-11.64-5.56-23.3-10.54-34.34-7.74-17.19-18.75-31.3-35.75-40.16-4.43-2.31-6.41-1.18-6.48,3.83-.1,7.37-.03,14.75-.03,22.12Z"/>
</svg>